<svg id="Capa_1" enable-background="new 0 0 512 512" height="512" viewBox="0 0 512 512" width="512" xmlns="http://www.w3.org/2000/svg" xmlns:xlink="http://www.w3.org/1999/xlink"><linearGradient id="SVGID_1_" gradientUnits="userSpaceOnUse" x1="256" x2="256" y1="512" y2="0"><stop offset="0" stop-color="#fd3a84"/><stop offset="1" stop-color="#ffa68d"/></linearGradient><g><g><g><path d="m362 377c0-24.813-20.187-45-45-45s-45 20.187-45 45 20.187 45 45 45 45-20.187 45-45zm-45 15c-8.271 0-15-6.729-15-15s6.729-15 15-15 15 6.729 15 15-6.729 15-15 15zm165-15c0-24.813-20.187-45-45-45s-45 20.187-45 45 20.187 45 45 45 45-20.187 45-45zm-45 15c-8.271 0-15-6.729-15-15s6.729-15 15-15 15 6.729 15 15-6.729 15-15 15zm-181-181h180c8.284 0 15-6.716 15-15s-6.716-15-15-15h-180c-8.284 0-15 6.716-15 15s6.716 15 15 15zm0-60h180c8.284 0 15-6.716 15-15s-6.716-15-15-15h-180c-8.284 0-15 6.716-15 15s6.716 15 15 15zm241-151h-482c-8.284 0-15 6.716-15 15v242c0 8.284 6.716 15 15 15h46.509c-.988 4.848-1.509 9.864-1.509 15v15h-45c-8.284 0-15 6.716-15 15s6.716 15 15 15h17.293l27.911 167.466c1.206 7.233 7.463 12.534 14.796 12.534h120c7.333 0 13.59-5.301 14.796-12.534l27.911-167.466h17.293c8.284 0 15-6.716 15-15s-6.716-15-15-15h-45v-15c0-5.136-.521-10.152-1.509-15h288.509c8.284 0 15-6.716 15-15v-242c0-8.284-6.716-15-15-15zm-314.707 482h-94.586l-25-150h144.586zm-92.293-180v-15c0-24.813 20.187-45 45-45s45 20.187 45 45v15zm392-60h-287.041c-13.697-18.204-35.475-30-59.959-30s-46.262 11.796-59.959 30h-45.041v-212h452zm-166-151h60c8.284 0 15-6.716 15-15s-6.716-15-15-15h-60c-8.284 0-15 6.716-15 15s6.716 15 15 15zm121 331c-24.508 0-46.305 11.818-60 30.052-13.695-18.234-35.492-30.052-60-30.052-41.355 0-75 33.645-75 75 0 8.284 6.716 15 15 15h240c8.284 0 15-6.716 15-15 0-41.355-33.645-75-75-75zm-162.43 60c6.191-17.461 22.874-30 42.43-30s36.239 12.539 42.43 30zm120 0c6.191-17.461 22.874-30 42.43-30s36.239 12.539 42.43 30zm-214.57-315c0-24.813-20.187-45-45-45s-45 20.187-45 45 20.187 45 45 45 45-20.187 45-45zm-45 15c-8.271 0-15-6.729-15-15s6.729-15 15-15 15 6.729 15 15-6.729 15-15 15z" fill="url(#SVGID_1_)"/></g></g></g></svg>