<svg id="Fill_Outline" height="512" viewBox="0 0 64 64" width="512" xmlns="http://www.w3.org/2000/svg" data-name="Fill Outline"><g id="Color"><path d="m49 31.611v-3.611h-8v3.611a4 4 0 0 1 -3.342 3.946l-3.644.607a6 6 0 0 0 -5.014 5.919v16.917a2 2 0 0 0 2 2h28a2 2 0 0 0 2-2v-16.917a6 6 0 0 0 -5.014-5.919l-3.644-.607a4 4 0 0 1 -3.342-3.946z" fill="#ef5350"/><path d="m59.8 46a3.37 3.37 0 0 1 -2.8-1.5 3.37 3.37 0 0 0 -2.8-1.5h-5.02a13.393 13.393 0 0 1 -11.956-7.371l-3.21.535a6 6 0 0 0 -5.014 5.919v16.917a2 2 0 0 0 2 2h28a2 2 0 0 0 2-2v-13z" fill="#e53935"/><g fill="#edb88e"><path d="m52.342 35.557a4 4 0 0 1 -3.342-3.946v-3.611h-8v3.611a4 4 0 0 1 -3.342 3.946 8.723 8.723 0 0 0 14.684 0z"/><path d="m29 49h6a0 0 0 0 1 0 0v12a0 0 0 0 1 0 0h-4a2 2 0 0 1 -2-2v-10a0 0 0 0 1 0 0z"/><path d="m55 49h6a0 0 0 0 1 0 0v10a2 2 0 0 1 -2 2h-4a0 0 0 0 1 0 0v-12a0 0 0 0 1 0 0z"/></g><path d="m59.3 56.127-1.287-3.427a2 2 0 0 1 1.873-2.7h1.114v-1h-6v12h4a2 2 0 0 0 2-2v-1.186a2.881 2.881 0 0 1 -1.7-1.687z" fill="#da9367"/><path d="m50 37a7.978 7.978 0 0 1 -6.267-3.037 7.986 7.986 0 0 0 5.267-2.682v-3.281h-8v3.611a4 4 0 0 1 -3.342 3.946 8.717 8.717 0 0 0 13.615 1.332 7.97 7.97 0 0 1 -1.273.111z" fill="#da9367"/><path d="m35 8h11a9 9 0 0 1 9 9 6 6 0 0 1 -6 6h-8a6 6 0 0 1 -6-6v-9a0 0 0 0 1 0 0z" fill="#93999a"/><path d="m54 17c-4.971 0-9-3.358-9-7.5a6.33 6.33 0 0 1 .181-1.5h-10.181v9a6 6 0 0 0 6 6h8a6 6 0 0 0 6-6c0-.016 0-.032 0-.049-.33.031-.662.049-1 .049z" fill="#656b76"/><path d="m45 32a8 8 0 0 1 -8-8v-6a10 10 0 0 0 8-4 10 10 0 0 0 8 4v6a8 8 0 0 1 -8 8z" fill="#f9dbaf"/><path d="m53 18h2a2 2 0 0 1 2 2 3 3 0 0 1 -3 3h-1a0 0 0 0 1 0 0v-5a0 0 0 0 1 0 0z" fill="#edb88e"/><path d="m33 18h1a3 3 0 0 1 3 3 2 2 0 0 1 -2 2h-2a0 0 0 0 1 0 0v-5a0 0 0 0 1 0 0z" fill="#f9dbaf" transform="matrix(-1 0 0 -1 70 41)"/><path d="m45 14a10 10 0 0 1 -8 4v6a7.992 7.992 0 0 0 13.84 5.456 7.909 7.909 0 0 1 -2.84.544 8 8 0 0 1 -8-8v-2.477a9.982 9.982 0 0 0 5-3.523 10 10 0 0 0 8 4v-2a10 10 0 0 1 -8-4z" fill="#edb88e"/><path d="m54 18h-1v5h1a2.99 2.99 0 0 0 2.822-2.018 2.992 2.992 0 0 1 -2.822-2.982z" fill="#da9367"/><path d="m36 18h1v5h-1a2.99 2.99 0 0 1 -2.822-2.018 2.992 2.992 0 0 0 2.822-2.982z" fill="#da9367"/><path d="m59 61h-3.26a3 3 0 0 1 -2.988-2.728l-.752-8.272h4z" fill="#f9dbaf"/><path d="m56 50h-4l.752 8.272a3 3 0 0 0 2.988 2.728h3.26l-.545-2h-.715a3 3 0 0 1 -2.988-2.728l-.297-3.272.017-.007a2.5 2.5 0 0 0 1.528-2.993z" fill="#edb88e"/><path d="m30.7 56.127 1.287-3.427a2 2 0 0 0 -1.873-2.7h-1.114v-1h6v12h-4a2 2 0 0 1 -2-2v-1.186a2.881 2.881 0 0 0 1.7-1.687z" fill="#da9367"/><path d="m31 61h3.26a3 3 0 0 0 2.988-2.728l.752-8.272h-4z" fill="#f9dbaf"/><path d="m34 50h4l-.752 8.272a3 3 0 0 1 -2.988 2.728h-3.26l.545-2h.715a3 3 0 0 0 2.988-2.728l.3-3.272-.017-.007a2.5 2.5 0 0 1 -1.531-2.993z" fill="#edb88e"/><path d="m37 49v3.5a2.5 2.5 0 0 0 2.5 2.5 2.5 2.5 0 0 0 2.5-2.5v-.5h6v.5a2.5 2.5 0 0 0 2.5 2.5 2.5 2.5 0 0 0 2.5-2.5v-3.5a3 3 0 0 0 -3-3h-10a3 3 0 0 0 -3 3z" fill="#00b4d8"/><path d="m50 46v1a3 3 0 0 1 -3 3h-4a3 3 0 0 1 -3-3v-1a3 3 0 0 0 -3 3v3.5a2.5 2.5 0 0 0 5 0v-.5h6v.5a2.5 2.5 0 0 0 5 0v-3.5a3 3 0 0 0 -3-3z" fill="#0096c7"/><rect fill="#f9dbaf" height="6" rx="2" width="5" x="51" y="46"/><path d="m53 48v-2a2 2 0 0 0 -2 2v2a2 2 0 0 0 2 2h1a2 2 0 0 0 2-2h-1a2 2 0 0 1 -2-2z" fill="#edb88e"/><rect fill="#f9dbaf" height="6" rx="2" width="5" x="34" y="46"/><path d="m36 48v-2a2 2 0 0 0 -2 2v2a2 2 0 0 0 2 2h1a2 2 0 0 0 2-2h-1a2 2 0 0 1 -2-2z" fill="#edb88e"/><rect fill="#d0d8da" height="20" rx="4" width="31" x="3" y="33"/><path d="m20 48.95v-.95a2 2 0 0 0 -2-2h-3a1.989 1.989 0 0 0 -1.565.768 13.978 13.978 0 0 1 -6.435-11.768v-2a4 4 0 0 0 -4 4v12a4 4 0 0 0 4 4h23a4 4 0 0 0 4-4h-13c-.338 0-.668-.027-1-.05z" fill="#b8bebf"/><rect fill="#e9f1f2" height="13" rx="2" width="7" x="15" y="46"/><path d="m20 55a2 2 0 0 1 -2-2v-7h-1a2 2 0 0 0 -2 2v9a2 2 0 0 0 2 2h3a2 2 0 0 0 2-2v-2z" fill="#d0d8da"/><path d="m10 57h17a4 4 0 0 1 4 4 0 0 0 0 1 0 0h-25a0 0 0 0 1 0 0 4 4 0 0 1 4-4z" fill="#e9f1f2"/><path d="m12 59a2 2 0 0 1 -2-2 4 4 0 0 0 -4 4h25a3.955 3.955 0 0 0 -.555-2z" fill="#d0d8da"/><path d="m14.364 20.314-2.828-2.829 7.778-7.778 3.535-.707-.707 3.536z" fill="#d0d8da"/><path d="m14.364 20.314-2.828-2.829-3.536 4.95 1.414 1.414z" fill="#00b4d8"/><path d="m19.208 12.744-1.465-1.466-4.243 4.243.785.785a2.777 2.777 0 0 1 -1.188-.382l-1.561 1.561 2.828 2.829 7.778-7.778.707-3.536z" fill="#b8bebf"/><path d="m19.636 20.243 2.828-2.829-7.778-7.778-3.535-.707.707 3.535z" fill="#e9f1f2"/><path d="m19.636 20.243 2.828-2.829 3.536 4.95-1.414 1.414z" fill="#48cae4"/><path d="m19.636 20.243 2.828-2.829-1.564-1.561a2.8 2.8 0 0 1 -3.452-.446l-6.3-6.478.707 3.535z" fill="#d0d8da"/><path d="m23.557 21.615a2 2 0 0 1 -.258-3.033l-.835-1.168-2.828 2.829 4.95 3.535.833-.833z" fill="#00b4d8"/><path d="m10.443 21.686a2 2 0 0 0 .258-3.033l.835-1.168 2.828 2.829-4.95 3.535-.833-.833z" fill="#0096c7"/></g><g id="Outline_copy" fill="#464a51" data-name="Outline copy"><path d="m61 46a1 1 0 0 0 1-1v-2.917a6.978 6.978 0 0 0 -5.85-6.905l-3.637-.606a2.992 2.992 0 0 1 -2.513-2.961v-.133a9 9 0 0 0 4-7.478 4 4 0 0 0 4-4 3 3 0 0 0 -2.016-2.821c0-.057.016-.122.016-.179a10.011 10.011 0 0 0 -10-10h-11a1 1 0 0 0 -1 1v6a1 1 0 0 0 2 0v-5h10a8.009 8.009 0 0 1 8 8h-1a9.045 9.045 0 0 1 -7.2-3.6 1.036 1.036 0 0 0 -1.6 0 9.045 9.045 0 0 1 -7.2 3.6h-2a3 3 0 0 0 -3 3 4 4 0 0 0 4 4 9 9 0 0 0 4 7.478v.133a2.992 2.992 0 0 1 -2.507 2.96l-2.888.481a5.008 5.008 0 0 0 -4.605-3.052h-23a5.006 5.006 0 0 0 -5 5v12a5.006 5.006 0 0 0 5 5h4a1 1 0 0 0 0-2h-4a3 3 0 0 1 -3-3v-12a3 3 0 0 1 3-3h23a3 3 0 0 1 3 3v12a3 3 0 0 1 -3 3h-7v-4a3 3 0 0 0 -3-3h-3a3 3 0 0 0 -3 3v8h-4a5.006 5.006 0 0 0 -5 5 1 1 0 0 0 1 1h5a1 1 0 0 0 0-2h-3.829a3.006 3.006 0 0 1 2.829-2h17a3.006 3.006 0 0 1 2.829 2h-14.829a1 1 0 0 0 0 2h19.261a3.98 3.98 0 0 0 3.983-3.638l.23-2.533a3.458 3.458 0 0 0 1.026.171 3.507 3.507 0 0 0 3.465-3h.864a3.6 3.6 0 0 1 .171 1.037 8.512 8.512 0 0 1 -2.511 6.063l-.2.2a1 1 0 1 0 1.416 1.412l.2-.2a10.5 10.5 0 0 0 3.095-7.475 5.608 5.608 0 0 0 -.1-1.037h1.137a3.507 3.507 0 0 0 3.463 3 3.458 3.458 0 0 0 1.026-.171l.23 2.533a3.98 3.98 0 0 0 3.983 3.638h3.261a3 3 0 0 0 3-3v-10a1 1 0 0 0 -1-1h-4a3 3 0 0 0 -3-3h-1a2.964 2.964 0 0 0 -1.377.35 3.988 3.988 0 0 0 -1.623-.35h-3v-1a3 3 0 0 0 -6 0v1h-1a3.988 3.988 0 0 0 -1.623.35 2.964 2.964 0 0 0 -1.377-.35h-1a2.966 2.966 0 0 0 -1 .184v-8.17l2.822-.471a4.976 4.976 0 0 0 4.1-4.095 8.841 8.841 0 0 0 6.15 0 4.96 4.96 0 0 0 2.633 3.594 7.71 7.71 0 0 1 -9.6 1.486 1 1 0 1 0 -1 1.728 9.675 9.675 0 0 0 12.682-2.612l3.04.507a4.983 4.983 0 0 1 4.173 4.932v2.917a1 1 0 0 0 1 1zm-29.014 7.584-1.157 4.24a4.97 4.97 0 0 0 -.829-.8v-3.024a4.969 4.969 0 0 0 1.986-.416zm-15.986-5.584a1 1 0 0 1 1-1h3a1 1 0 0 1 1 1v8h-5zm7 8v-2h5v2.1a5 5 0 0 0 -1-.1zm11.261 4h-1.951l2.044-7.5a2.973 2.973 0 0 0 1.646.5h.051a3.471 3.471 0 0 0 .541 1.443l-.34 3.738a1.99 1.99 0 0 1 -1.991 1.819zm21.478 0a1.99 1.99 0 0 1 -1.991-1.819l-.34-3.738a3.471 3.471 0 0 0 .541-1.443h.051a2.973 2.973 0 0 0 1.646-.5l2.044 7.5zm4.261-1a.992.992 0 0 1 -.313.72l-2.65-9.72h2.963zm-7-12h1a1 1 0 0 1 1 1v2a1 1 0 0 1 -1 1h-1a1 1 0 0 1 -1-1v-2a1 1 0 0 1 1-1zm-2.824.026a2.97 2.97 0 0 0 -.176.974v2a3 3 0 0 0 1.968 2.806 1.5 1.5 0 0 1 -2.968-.306v-.5a1 1 0 0 0 -1-1h-2.9a5.559 5.559 0 0 0 -.925-1.114 3.648 3.648 0 0 1 -1.175-2.679v-.207h7c.06 0 .117.021.176.026zm-7.176-3.026a1 1 0 0 1 2 0v1h-2zm-2 3v.207a5.654 5.654 0 0 0 1.472 3.793h-.472a1 1 0 0 0 -1 1v.5a1.5 1.5 0 0 1 -2.968.306 3 3 0 0 0 1.968-2.806v-2a2.97 2.97 0 0 0 -.176-.974c.059-.005.116-.026.176-.026zm-5 0h1a1 1 0 0 1 1 1v2a1 1 0 0 1 -1 1h-1a1 1 0 0 1 -1-1v-2a1 1 0 0 1 1-1zm18-25v-3h1a1 1 0 0 1 1 1 2 2 0 0 1 -2 2zm-20-2a1 1 0 0 1 1-1h1v3a2 2 0 0 1 -2-2zm4 4v-5.046a11.074 11.074 0 0 0 7-3.406 11.074 11.074 0 0 0 7 3.406v5.046a7 7 0 0 1 -14 0z"/><circle cx="42" cy="21" r="1"/><circle cx="48" cy="21" r="1"/><path d="m47.445 25.168a4.4 4.4 0 0 1 -4.89 0 1 1 0 0 0 -1.11 1.664 6.391 6.391 0 0 0 7.11 0 1 1 0 1 0 -1.11-1.664z"/><path d="m23 42a1 1 0 0 0 0-2h-9a1 1 0 0 0 0 2z"/><path d="m8.707 24.485a1 1 0 0 0 1.288.107l4.261-3.043.815.815a1 1 0 0 0 1.414-1.414l-.707-.707 1.222-1.222 1.222 1.222-.707.707a1 1 0 1 0 1.414 1.414l.815-.815 4.261 3.043a1 1 0 0 0 1.288-.107l1.414-1.414a1 1 0 0 0 .106-1.288l-3.042-4.261.815-.815a1 1 0 0 0 -1.414-1.414l-.707.707-1.222-1.222 1.607-1.607a1 1 0 0 0 .273-.51l.707-3.536a1 1 0 0 0 -1.177-1.177l-3.536.708a1 1 0 0 0 -.511.273l-1.606 1.607-1.606-1.607a1 1 0 0 0 -.511-.273l-3.536-.708a1 1 0 0 0 -1.177 1.177l.707 3.536a1 1 0 0 0 .273.51l1.607 1.607-1.222 1.222-.707-.707a1 1 0 1 0 -1.414 1.414l.815.815-3.042 4.261a1 1 0 0 0 .106 1.288zm15.987-2.229-.216.216-3.3-2.357 1.159-1.159zm-4.887-11.7 1.768-.354-.353 1.767-1.393 1.393-1.415-1.412zm-5.614 0 6.858 6.856-1.415 1.415-6.858-6.858-.353-1.769zm-1.244 6.856 1.223-1.221 1.414 1.414-1.222 1.222zm-1.286 1.542 1.159 1.159-3.3 2.357-.216-.216z"/></g></svg>